<mxfile host="Electron" modified="2023-08-27T16:09:53.593Z" agent="Mozilla/5.0 (Windows NT 10.0; Win64; x64) AppleWebKit/537.36 (KHTML, like Gecko) draw.io/21.6.8 Chrome/114.0.5735.289 Electron/25.5.0 Safari/537.36" etag="-RXa-TSA5cpZhwqQBQSx" version="21.6.8" type="device">
  <diagram name="Page-1" id="Xz7JLN1gVyghV_8wE1UY">
    <mxGraphModel dx="600" dy="355" grid="1" gridSize="10" guides="1" tooltips="1" connect="1" arrows="1" fold="1" page="1" pageScale="1" pageWidth="850" pageHeight="1100" math="0" shadow="0">
      <root>
        <mxCell id="0" />
        <mxCell id="1" parent="0" />
        <mxCell id="KpfcxOSb_-0hNQX8VLAN-13" value="Device" style="swimlane;fontStyle=1;align=center;verticalAlign=top;childLayout=stackLayout;horizontal=1;startSize=30;horizontalStack=0;resizeParent=1;resizeParentMax=0;resizeLast=0;collapsible=1;marginBottom=0;whiteSpace=wrap;html=1;" vertex="1" parent="1">
          <mxGeometry x="90" y="78" width="210" height="180" as="geometry">
            <mxRectangle x="210" y="80" width="100" height="30" as="alternateBounds" />
          </mxGeometry>
        </mxCell>
        <mxCell id="KpfcxOSb_-0hNQX8VLAN-14" value="barks:array&lt;br&gt;&lt;div&gt;door:Door&lt;/div&gt;" style="text;strokeColor=none;fillColor=none;align=left;verticalAlign=top;spacingLeft=4;spacingRight=4;overflow=hidden;rotatable=0;points=[[0,0.5],[1,0.5]];portConstraint=eastwest;whiteSpace=wrap;html=1;" vertex="1" parent="KpfcxOSb_-0hNQX8VLAN-13">
          <mxGeometry y="30" width="210" height="54" as="geometry" />
        </mxCell>
        <mxCell id="KpfcxOSb_-0hNQX8VLAN-15" value="" style="line;strokeWidth=1;fillColor=none;align=left;verticalAlign=middle;spacingTop=-1;spacingLeft=3;spacingRight=3;rotatable=0;labelPosition=right;points=[];portConstraint=eastwest;strokeColor=inherit;" vertex="1" parent="KpfcxOSb_-0hNQX8VLAN-13">
          <mxGeometry y="84" width="210" height="8" as="geometry" />
        </mxCell>
        <mxCell id="KpfcxOSb_-0hNQX8VLAN-22" value="validateBark(string):bool&lt;br&gt;addBark(string):void&lt;br&gt;getBarks():array&lt;br&gt;openForBark(string):void" style="text;strokeColor=none;fillColor=none;align=left;verticalAlign=top;spacingLeft=4;spacingRight=4;overflow=hidden;rotatable=0;points=[[0,0.5],[1,0.5]];portConstraint=eastwest;whiteSpace=wrap;html=1;" vertex="1" parent="KpfcxOSb_-0hNQX8VLAN-13">
          <mxGeometry y="92" width="210" height="88" as="geometry" />
        </mxCell>
        <mxCell id="KpfcxOSb_-0hNQX8VLAN-23" value="Door" style="swimlane;fontStyle=1;align=center;verticalAlign=top;childLayout=stackLayout;horizontal=1;startSize=26;horizontalStack=0;resizeParent=1;resizeParentMax=0;resizeLast=0;collapsible=1;marginBottom=0;whiteSpace=wrap;html=1;" vertex="1" parent="1">
          <mxGeometry x="450" y="87" width="160" height="120" as="geometry">
            <mxRectangle x="210" y="80" width="100" height="30" as="alternateBounds" />
          </mxGeometry>
        </mxCell>
        <mxCell id="KpfcxOSb_-0hNQX8VLAN-34" value="isOpen:bool" style="text;strokeColor=none;fillColor=none;align=left;verticalAlign=top;spacingLeft=4;spacingRight=4;overflow=hidden;rotatable=0;points=[[0,0.5],[1,0.5]];portConstraint=eastwest;whiteSpace=wrap;html=1;" vertex="1" parent="KpfcxOSb_-0hNQX8VLAN-23">
          <mxGeometry y="26" width="160" height="24" as="geometry" />
        </mxCell>
        <mxCell id="KpfcxOSb_-0hNQX8VLAN-25" value="" style="line;strokeWidth=1;fillColor=none;align=left;verticalAlign=middle;spacingTop=-1;spacingLeft=3;spacingRight=3;rotatable=0;labelPosition=right;points=[];portConstraint=eastwest;strokeColor=inherit;" vertex="1" parent="KpfcxOSb_-0hNQX8VLAN-23">
          <mxGeometry y="50" width="160" height="8" as="geometry" />
        </mxCell>
        <mxCell id="KpfcxOSb_-0hNQX8VLAN-26" value="open():void&lt;br&gt;close():void&lt;br&gt;getStatus():bool" style="text;strokeColor=none;fillColor=none;align=left;verticalAlign=top;spacingLeft=4;spacingRight=4;overflow=hidden;rotatable=0;points=[[0,0.5],[1,0.5]];portConstraint=eastwest;whiteSpace=wrap;html=1;" vertex="1" parent="KpfcxOSb_-0hNQX8VLAN-23">
          <mxGeometry y="58" width="160" height="62" as="geometry" />
        </mxCell>
        <mxCell id="KpfcxOSb_-0hNQX8VLAN-28" value="Door" style="endArrow=block;endFill=1;html=1;edgeStyle=orthogonalEdgeStyle;align=left;verticalAlign=top;rounded=0;entryX=-0.014;entryY=0.173;entryDx=0;entryDy=0;entryPerimeter=0;exitX=1.028;exitY=0.884;exitDx=0;exitDy=0;exitPerimeter=0;" edge="1" parent="1" source="KpfcxOSb_-0hNQX8VLAN-14" target="KpfcxOSb_-0hNQX8VLAN-26">
          <mxGeometry x="0.4318" y="-13" relative="1" as="geometry">
            <mxPoint x="260" y="129.90000000000003" as="sourcePoint" />
            <mxPoint x="430" y="129.61" as="targetPoint" />
            <mxPoint as="offset" />
          </mxGeometry>
        </mxCell>
        <mxCell id="KpfcxOSb_-0hNQX8VLAN-29" value="1" style="edgeLabel;resizable=0;html=1;align=left;verticalAlign=bottom;" connectable="0" vertex="1" parent="KpfcxOSb_-0hNQX8VLAN-28">
          <mxGeometry x="-1" relative="1" as="geometry">
            <mxPoint x="94" y="-8" as="offset" />
          </mxGeometry>
        </mxCell>
        <mxCell id="KpfcxOSb_-0hNQX8VLAN-36" value="Remote" style="swimlane;fontStyle=1;align=center;verticalAlign=top;childLayout=stackLayout;horizontal=1;startSize=30;horizontalStack=0;resizeParent=1;resizeParentMax=0;resizeLast=0;collapsible=1;marginBottom=0;whiteSpace=wrap;html=1;" vertex="1" parent="1">
          <mxGeometry x="100" y="280" width="210" height="120" as="geometry">
            <mxRectangle x="210" y="80" width="100" height="30" as="alternateBounds" />
          </mxGeometry>
        </mxCell>
        <mxCell id="KpfcxOSb_-0hNQX8VLAN-37" value="&lt;span style=&quot;background-color: initial;&quot;&gt;door:Door&lt;/span&gt;" style="text;strokeColor=none;fillColor=none;align=left;verticalAlign=top;spacingLeft=4;spacingRight=4;overflow=hidden;rotatable=0;points=[[0,0.5],[1,0.5]];portConstraint=eastwest;whiteSpace=wrap;html=1;" vertex="1" parent="KpfcxOSb_-0hNQX8VLAN-36">
          <mxGeometry y="30" width="210" height="30" as="geometry" />
        </mxCell>
        <mxCell id="KpfcxOSb_-0hNQX8VLAN-38" value="" style="line;strokeWidth=1;fillColor=none;align=left;verticalAlign=middle;spacingTop=-1;spacingLeft=3;spacingRight=3;rotatable=0;labelPosition=right;points=[];portConstraint=eastwest;strokeColor=inherit;" vertex="1" parent="KpfcxOSb_-0hNQX8VLAN-36">
          <mxGeometry y="60" width="210" height="8" as="geometry" />
        </mxCell>
        <mxCell id="KpfcxOSb_-0hNQX8VLAN-39" value="pressButton()&lt;br&gt;msgToOpen()&lt;br&gt;msgToClose()" style="text;strokeColor=none;fillColor=none;align=left;verticalAlign=top;spacingLeft=4;spacingRight=4;overflow=hidden;rotatable=0;points=[[0,0.5],[1,0.5]];portConstraint=eastwest;whiteSpace=wrap;html=1;" vertex="1" parent="KpfcxOSb_-0hNQX8VLAN-36">
          <mxGeometry y="68" width="210" height="52" as="geometry" />
        </mxCell>
        <mxCell id="KpfcxOSb_-0hNQX8VLAN-40" value="Door" style="endArrow=block;endFill=1;html=1;edgeStyle=orthogonalEdgeStyle;align=left;verticalAlign=top;rounded=0;exitX=1.028;exitY=0.884;exitDx=0;exitDy=0;exitPerimeter=0;" edge="1" parent="1">
          <mxGeometry x="0.9228" y="-10" relative="1" as="geometry">
            <mxPoint x="330" y="347.55" as="sourcePoint" />
            <mxPoint x="470" y="228.31" as="targetPoint" />
            <mxPoint as="offset" />
          </mxGeometry>
        </mxCell>
        <mxCell id="KpfcxOSb_-0hNQX8VLAN-41" value="1" style="edgeLabel;resizable=0;html=1;align=left;verticalAlign=bottom;" connectable="0" vertex="1" parent="KpfcxOSb_-0hNQX8VLAN-40">
          <mxGeometry x="-1" relative="1" as="geometry">
            <mxPoint x="120" y="-90" as="offset" />
          </mxGeometry>
        </mxCell>
      </root>
    </mxGraphModel>
  </diagram>
</mxfile>
